# xmcd
#
# Track frame offsets:
#	150
#	20997
#	43865
#	65260
#	88842
#	109547
#	136327
#	163557
#	184737
#	210432
#	230560
#	253062
#	273192
#	294732
#
# Disc length: 4231
#
# Revision: 1
# Processed by: cddbd v1.5.1PL0 Copyright (c) Steve Scherf et al.
# Submitted via: CDex 1.50
# Normalized: r0:DSETVAR1,TDELIM( - )
#
DISCID=cc10850e
DTITLE=Various Artist - La Vida es un Carnaval
DYEAR=2000
DGENRE=Salsa
TTITLE0=Celia Cruz - La vida es un carnaval
TTITLE1=Marc Anthony - Contra la corriente
TTITLE2=Oscar d'Leon y India - Hazme el amor
TTITLE3=India - Me canse de ser la otra
TTITLE4=Wilfrido Vargas - Por la plata baila el mono
TTITLE5=Tito Puente - Oye como va
TTITLE6=Orquesta de la luz - Salsa caliente del japon
TTITLE7=Manny Manuel - Corazon partio
TTITLE8=Cheo Feliciano - Yo no soy un angel
TTITLE9=Tito Nieves - Amaneci en tus brazos
TTITLE10=Tony Vega - Olvidalo ya
TTITLE11=Ray Sepulveda - Alguien te esta hablando
TTITLE12=Johnny Rivera - Cuando parara la lluvia
TTITLE13=Domingo Quinones - Tu como estas
EXTD=YEAR: 2000
EXTT0=
EXTT1=
EXTT2=
EXTT3=
EXTT4=
EXTT5=
EXTT6=
EXTT7=
EXTT8=
EXTT9=
EXTT10=
EXTT11=
EXTT12=
EXTT13=
PLAYORDER=
